<?xml version="1.0" encoding="iso-8859-1"?>
<!-- Uploaded to: SVG Repo, www.svgrepo.com, Generator: SVG Repo Mixer Tools -->
<svg fill="#000000" height="800px" width="800px" version="1.1" id="Layer_1" xmlns="http://www.w3.org/2000/svg" xmlns:xlink="http://www.w3.org/1999/xlink" 
	 viewBox="0 0 512 512" xml:space="preserve">
<g>
	<g>
		<path d="M387.019,124.77c-35.025-35.025-81.592-54.314-131.125-54.314c-102.25,0-185.438,83.187-185.438,185.438
			s83.188,185.439,185.438,185.439c102.251,0,185.438-83.187,185.438-185.438C441.333,206.362,422.044,159.795,387.019,124.77z
			 M255.895,410.915c-85.478,0-155.021-69.542-155.021-155.022s69.542-155.021,155.021-155.021
			c41.407,0,80.337,16.124,109.617,45.404c29.28,29.28,45.405,68.208,45.404,109.616
			C410.915,341.373,341.374,410.915,255.895,410.915z"/>
	</g>
</g>
<g>
	<g>
		<path d="M494.926,124.694C505.936,113.685,512,99.047,512,83.477c0-15.571-6.063-30.209-17.072-41.216l-25.185-25.187
			c-11.009-11.01-25.648-17.073-41.219-17.073c-15.571,0-30.209,6.063-41.22,17.074l-12.24,12.243
			C338.759,10.166,298.11,0,255.895,0C187.543,0,123.282,26.617,74.951,74.95C26.619,123.282,0.002,187.543,0,255.894
			c0,42.215,10.166,82.863,29.316,119.168l-12.244,12.243C6.064,398.315,0,412.953,0,428.523c0,15.571,6.063,30.209,17.072,41.216
			l25.185,25.187C53.267,505.936,67.905,512,83.476,512c15.571,0,30.209-6.063,41.22-17.075l12.307-12.31
			c36.235,19.058,76.784,29.173,118.892,29.172c68.352,0,132.612-26.617,180.944-74.95c48.331-48.331,74.95-112.592,74.95-180.943
			c0-42.108-10.116-82.655-29.172-118.891L494.926,124.694z M103.187,473.418c-5.264,5.264-12.264,8.165-19.71,8.165
			s-14.445-2.9-19.71-8.165L38.582,448.23c-5.265-5.263-8.164-12.262-8.164-19.706c0-7.444,2.9-14.445,8.164-19.709l7.019-7.019
			c8.643,12.4,18.436,24.133,29.349,35.045c10.985,10.985,22.801,20.835,35.292,29.518L103.187,473.418z M415.331,415.33
			c-42.586,42.586-99.209,66.04-159.436,66.04c-60.227,0-116.849-23.453-159.435-66.04c-42.586-42.586-66.041-99.21-66.041-159.436
			c0-60.227,23.455-116.849,66.041-159.435c42.588-42.588,99.209-66.041,159.435-66.041c60.227,0,116.849,23.454,159.436,66.041
			c42.588,42.588,66.04,99.21,66.04,159.436C481.371,316.122,457.917,372.744,415.331,415.33z M473.418,103.186l-7.059,7.059
			c-8.684-12.492-18.534-24.309-29.52-35.294c-10.913-10.913-22.643-20.706-35.043-29.348l7.018-7.02
			c5.264-5.264,12.264-8.164,19.709-8.164c7.445,0,14.445,2.899,19.71,8.164l25.186,25.188c5.264,5.263,8.163,12.262,8.163,19.708
			S478.683,97.922,473.418,103.186z"/>
	</g>
</g>
</svg>